<?xml version="1.0" encoding="iso-8859-1"?>
<!-- Generator: Adobe Illustrator 19.1.0, SVG Export Plug-In . SVG Version: 6.00 Build 0)  -->
<svg version="1.1" id="Capa_1" xmlns="http://www.w3.org/2000/svg" xmlns:xlink="http://www.w3.org/1999/xlink" x="0px" y="0px"
	 viewBox="0 0 52.31 52.31" style="enable-background:new 0 0 52.31 52.31;" xml:space="preserve">
<g>
	<g id="group-20svg">
		<path id="path-1_12_" style="fill:#686868;" d="M32.129,25.348c-0.566,0-1.108-0.321-1.361-0.868
			c-0.349-0.751-0.024-1.643,0.728-1.992l15.755-7.321L31.496,7.844c-0.752-0.349-1.077-1.241-0.728-1.992
			c0.348-0.752,1.243-1.074,1.992-0.728l18.682,8.682c0.53,0.246,0.868,0.777,0.868,1.361c0,0.583-0.338,1.114-0.868,1.36
			L32.76,25.209C32.556,25.303,32.341,25.348,32.129,25.348z"/>
		<path id="path-2_11_" style="fill:#686868;" d="M1.5,47.325c-0.828,0-1.5-0.672-1.5-1.5V27.813
			c0-8.243,8.232-13.988,15.621-13.988H48c0.828,0,1.5,0.672,1.5,1.5c0,0.828-0.672,1.5-1.5,1.5H15.621
			C9.651,16.825,3,21.337,3,27.813v18.012C3,46.653,2.328,47.325,1.5,47.325z"/>
	</g>
</g>
<g>
</g>
<g>
</g>
<g>
</g>
<g>
</g>
<g>
</g>
<g>
</g>
<g>
</g>
<g>
</g>
<g>
</g>
<g>
</g>
<g>
</g>
<g>
</g>
<g>
</g>
<g>
</g>
<g>
</g>
</svg>
